<?xml version="1.0" encoding="UTF-8"?>
<!DOCTYPE svg PUBLIC "-//W3C//DTD SVG 1.1//EN" "http://www.w3.org/Graphics/SVG/1.1/DTD/svg11.dtd">
<svg xmlns="http://www.w3.org/2000/svg" version="1.1" width="1200px" height="1200px" style="shape-rendering:geometricPrecision; text-rendering:geometricPrecision; image-rendering:optimizeQuality; fill-rule:evenodd; clip-rule:evenodd" xmlns:xlink="http://www.w3.org/1999/xlink">
<g><path style="opacity:0.982" fill="#232222" d="M 699.5,10.5 C 763.304,6.2033 822.97,19.7033 878.5,51C 916.77,72.9287 951.937,99.0954 984,129.5C 1009.84,157.15 1030.17,188.483 1045,223.5C 1055.91,254.267 1059.91,285.933 1057,318.5C 1056.2,338.971 1051.87,358.637 1044,377.5C 1025.47,412.695 1002.31,444.528 974.5,473C 950.597,488.859 924.264,498.192 895.5,501C 888.175,501.628 880.842,502.128 873.5,502.5C 854.691,501.576 836.024,499.743 817.5,497C 798.539,533.088 779.706,569.255 761,605.5C 760.333,606.5 760.333,607.5 761,608.5C 800.342,655.52 826.675,709.187 840,769.5C 852.34,829.465 842.673,885.465 811,937.5C 773.714,989.09 723.548,1020.92 660.5,1033C 589.296,1045.31 519.629,1039.31 451.5,1015C 432.467,1008.04 413.801,1000.21 395.5,991.5C 365.109,1037.74 335.275,1084.41 306,1131.5C 276.968,1150.7 247.802,1169.7 218.5,1188.5C 218.167,1183 217.833,1177.5 217.5,1172C 218.178,1142.84 218.678,1113.67 219,1084.5C 248.041,1034.92 277.207,985.418 306.5,936C 244.885,889.72 198.052,831.553 166,761.5C 144.858,713.504 137.525,663.504 144,611.5C 158.234,535.275 200.734,481.442 271.5,450C 320.381,430.556 371.048,423.223 423.5,428C 441.017,429.336 458.351,431.836 475.5,435.5C 500.469,402.19 525.469,368.857 550.5,335.5C 520.099,294.802 504.099,248.969 502.5,198C 502.077,181.448 505.244,165.615 512,150.5C 527.175,114.335 549.008,82.8351 577.5,56C 613.144,27.5057 653.811,12.339 699.5,10.5 Z"/></g>
<g><path style="opacity:1" fill="#e52129" d="M 1030.5,224.5 C 1014.85,259.158 994.682,290.825 970,319.5C 940.145,350.789 903.645,368.289 860.5,372C 812.671,374.019 765.338,370.019 718.5,360C 692.551,353.129 667.884,343.129 644.5,330C 601.828,305.497 562.162,276.83 525.5,244C 524.207,243.51 522.873,243.343 521.5,243.5C 518.269,228.175 516.269,212.675 515.5,197C 515.933,181.103 519.433,165.936 526,151.5C 541.126,116.744 562.959,86.9108 591.5,62C 624.283,37.6263 661.283,24.9597 702.5,24C 767.419,19.8963 827.419,34.8963 882.5,69C 903.864,82.347 924.531,96.6803 944.5,112C 982.478,142.466 1011.14,179.966 1030.5,224.5 Z"/></g>
<g><path style="opacity:1" fill="#fefdfd" d="M 660.5,44.5 C 665.844,44.334 671.177,44.5006 676.5,45C 683.076,47.5151 684.242,51.6817 680,57.5C 677.167,60.3333 674.333,63.1667 671.5,66C 654.831,76.257 639.331,88.0903 625,101.5C 621.089,106.322 617.422,111.322 614,116.5C 608.984,126.531 603.984,136.531 599,146.5C 591.657,157.999 581.324,164.999 568,167.5C 553.004,164.848 547.67,156.181 552,141.5C 568.482,100.017 596.982,69.8504 637.5,51C 645.163,48.3384 652.829,46.1717 660.5,44.5 Z"/></g>
<g><path style="opacity:1" fill="#b12e32" d="M 1030.5,224.5 C 1038.27,241.9 1042.77,260.233 1044,279.5C 1045.6,305.132 1043.6,330.466 1038,355.5C 1034.77,365.966 1030.43,375.966 1025,385.5C 1011.81,407.221 997.141,427.888 981,447.5C 972.237,458.275 961.737,466.775 949.5,473C 914.82,487.742 878.82,492.409 841.5,487C 737.559,473.286 650.392,428.119 580,351.5C 551.903,320.315 532.403,284.315 521.5,243.5C 522.873,243.343 524.207,243.51 525.5,244C 562.162,276.83 601.828,305.497 644.5,330C 667.884,343.129 692.551,353.129 718.5,360C 765.338,370.019 812.671,374.019 860.5,372C 903.645,368.289 940.145,350.789 970,319.5C 994.682,290.825 1014.85,259.158 1030.5,224.5 Z"/></g>
<g><path style="opacity:1" fill="#e52129" d="M 696.5,453.5 C 687.562,469.041 679.396,485.041 672,501.5C 655.958,543.26 637.958,584.26 618,624.5C 607.127,646.07 592.96,665.237 575.5,682C 549.866,704.5 520.866,710.167 488.5,699C 480.993,695.745 473.659,692.245 466.5,688.5C 427.714,654.259 407.214,611.259 405,559.5C 407.39,554.997 409.39,550.331 411,545.5C 460.615,478.218 510.615,411.218 561,344.5C 589.601,379.781 623.101,409.281 661.5,433C 673.076,440.096 684.743,446.929 696.5,453.5 Z"/></g>
<g><path style="opacity:1" fill="#fefbfb" d="M 558.5,371.5 C 559.822,371.33 560.989,371.663 562,372.5C 562.484,374.913 562.15,377.246 561,379.5C 552.126,395.696 542.459,411.363 532,426.5C 498.533,473.306 463.533,518.973 427,563.5C 416.957,573.004 414.957,571.004 421,557.5C 456.203,501.753 493.87,447.753 534,395.5C 541.399,386.6 549.565,378.6 558.5,371.5 Z"/></g>
<g><path style="opacity:1" fill="#e52129" d="M 529.5,739.5 C 533.428,768.396 534.262,797.396 532,826.5C 525.792,852.371 510.959,871.537 487.5,884C 443.366,908.103 398.366,909.769 352.5,889C 316.085,870.235 282.085,847.902 250.5,822C 224.92,800.872 200.587,778.372 177.5,754.5C 163.022,720.137 155.356,684.303 154.5,647C 157.168,559.695 198.168,498.029 277.5,462C 335.122,439.726 394.455,434.06 455.5,445C 460.335,445.542 465.001,446.709 469.5,448.5C 446.333,480.167 423.167,511.833 400,543.5C 398.613,548.604 396.946,553.604 395,558.5C 395.159,596.311 406.159,630.645 428,661.5C 454.402,697.272 488.235,723.272 529.5,739.5 Z"/></g>
<g><path style="opacity:1" fill="#fefcfc" d="M 374.5,447.5 C 385.61,447.052 396.61,447.886 407.5,450C 410.555,450.519 412.889,452.019 414.5,454.5C 414.471,456.029 413.804,457.196 412.5,458C 410.167,459 407.833,460 405.5,461C 372.938,467.389 341.272,476.723 310.5,489C 243.395,518.343 205.895,569.51 198,642.5C 197.234,654.828 196.567,667.161 196,679.5C 195.731,682.352 194.897,685.018 193.5,687.5C 192.635,688.583 191.635,688.749 190.5,688C 187.386,684.94 184.886,681.44 183,677.5C 160.16,612.689 174.327,557.523 225.5,512C 267.719,473.53 317.385,452.03 374.5,447.5 Z"/></g>
<g><path style="opacity:1" fill="#b12e32" d="M 696.5,453.5 C 731.32,470.551 767.653,483.218 805.5,491.5C 769.411,560.676 733.578,630.01 698,699.5C 686.799,724.207 667.632,738.374 640.5,742C 585.422,749.229 534.755,737.563 488.5,707C 480.91,701.053 473.577,694.886 466.5,688.5C 473.659,692.245 480.993,695.745 488.5,699C 520.866,710.167 549.866,704.5 575.5,682C 592.96,665.237 607.127,646.07 618,624.5C 637.958,584.26 655.958,543.26 672,501.5C 679.396,485.041 687.562,469.041 696.5,453.5 Z"/></g>
<g><path style="opacity:1" fill="#b12e32" d="M 177.5,754.5 C 200.587,778.372 224.92,800.872 250.5,822C 282.085,847.902 316.085,870.235 352.5,889C 398.366,909.769 443.366,908.103 487.5,884C 510.959,871.537 525.792,852.371 532,826.5C 534.262,797.396 533.428,768.396 529.5,739.5C 568.812,754.695 609.146,758.195 650.5,750C 670.324,745.806 686.157,735.639 698,719.5C 715.833,685.833 733.667,652.167 751.5,618.5C 793.511,667.95 819.678,724.95 830,789.5C 838.283,852.628 821.617,907.961 780,955.5C 748.52,986.831 711.02,1007.66 667.5,1018C 605.286,1031.1 543.619,1028.76 482.5,1011C 374.597,978.703 286.763,917.87 219,828.5C 202.469,805.438 188.636,780.772 177.5,754.5 Z"/></g>
<g><path style="opacity:1" fill="#fefefe" d="M 365.5,969.5 C 327.093,1029.3 289.427,1089.63 252.5,1150.5C 245.898,1154.81 239.232,1159.14 232.5,1163.5C 231.272,1138.16 231.438,1112.83 233,1087.5C 261.601,1037.91 290.601,988.573 320,939.5C 334.424,950.629 349.591,960.629 365.5,969.5 Z"/></g>
<g><path style="opacity:1" fill="#a1a1a1" d="M 365.5,969.5 C 372.054,973.028 378.554,976.695 385,980.5C 384.358,982.807 383.358,985.141 382,987.5C 353.084,1032.33 324.417,1077.33 296,1122.5C 281.868,1132.48 267.368,1141.81 252.5,1150.5C 289.427,1089.63 327.093,1029.3 365.5,969.5 Z"/></g>
</svg>
